# xmcd CD database file
#
# Track frame offsets:
#	150
#	12753
#	32090
#	46808
#	71720
#	86115
#	100795
#	112923
#	129248
#	144570
#	158228
#	166978
#	180718
#
# Disc length: 2621 seconds
#
# Revision: 2
# Processed by: cddbd v1.5.2PL0 Copyright (c) Steve Scherf et al.
# Submitted via: CDex 1.70beta2
#
DISCID=a20a3b0d
DTITLE=Tom Waits - The Early Years
DYEAR=1991
DGENRE=Folk
TTITLE0=Goin' Down Slow
TTITLE1=Poncho's Lament
TTITLE2=I'm Your Late Night Evening Prostitute
TTITLE3=Had Me a Girl
TTITLE4=Ice Cream Man
TTITLE5=Rockin' Chair
TTITLE6=Virginia Ave.
TTITLE7=Midnight Lullabye
TTITLE8=When You Ain't Got Nobody
TTITLE9=Little Trip To Heaven
TTITLE10=Frank's Song
TTITLE11=Look's Like Im Up Shit Creek Again
TTITLE12=So Long I'll See Ya
EXTD=YEAR: 1991
EXTT0=
EXTT1=
EXTT2=
EXTT3=
EXTT4=
EXTT5=
EXTT6=
EXTT7=
EXTT8=
EXTT9=
EXTT10=
EXTT11=
EXTT12=
PLAYORDER=
